<svg height="24" viewBox="0 0 24 24" width="24" xmlns="http://www.w3.org/2000/svg"><path d="m21 15c.5522847 0 1 .4477153 1 1 0 .5128358-.3860402.9355072-.8833789.9932723l-.1166211.0067277h-4v4c0 .5128358-.3860402.9355072-.8833789.9932723l-.1166211.0067277c-.5128358 0-.9355072-.3860402-.9932723-.8833789l-.0067277-.1166211v-5c0-.5128358.3860402-.9355072.8833789-.9932723l.1166211-.0067277zm-13 0 .11662113.0067277c.45908186.0533217.8233295.4175693.87665114.8766512l.00672773.1166211v5l-.00672773.1166211c-.05332164.4590819-.41756928.8233295-.87665114.8766512l-.11662113.0067277-.11662113-.0067277c-.45908186-.0533217-.8233295-.4175693-.87665114-.8766512l-.00672773-.1166211v-4h-4l-.11662113-.0067277c-.49733868-.0577651-.88337887-.4804365-.88337887-.9932723s.38604019-.9355072.88337887-.9932723l.11662113-.0067277zm8-13 .1166211.00672773c.4590819.05332164.8233295.41756928.8766512.87665114l.0067277.11662113v4h4l.1166211.00672773c.4973387.05776511.8833789.48043643.8833789.99327227s-.3860402.93550716-.8833789.99327227l-.1166211.00672773h-5l-.1166211-.00672773c-.4590819-.05332164-.8233295-.41756928-.8766512-.87665114l-.0067277-.11662113v-5l.0067277-.11662113c.0533217-.45908186.4175693-.8233295.8766512-.87665114zm-8 0c.51283584 0 .93550716.38604019.99327227.88337887l.00672773.11662113v5c0 .51283584-.38604019.93550716-.88337887.99327227l-.11662113.00672773h-5c-.55228475 0-1-.44771525-1-1 0-.51283584.38604019-.93550716.88337887-.99327227l.11662113-.00672773h4v-4c0-.51283584.38604019-.93550716.88337887-.99327227z"/></svg>